<?xml version="1.0" encoding="UTF-8" standalone="no"?><svg version="1.1" width="998.75562" height="983.96173" id="svg69" sodipodi:docname="ptolemeusz.svg" inkscape:version="1.1.1 (3bf5ae0d25, 2021-09-20)" xmlns:inkscape="http://www.inkscape.org/namespaces/inkscape" xmlns:sodipodi="http://sodipodi.sourceforge.net/DTD/sodipodi-0.dtd" xmlns="http://www.w3.org/2000/svg" xmlns:svg="http://www.w3.org/2000/svg"><sodipodi:namedview id="namedview71" pagecolor="#ffffff" bordercolor="#666666" borderopacity="1.0" inkscape:pageshadow="2" inkscape:pageopacity="0.0" inkscape:pagecheckerboard="0" showgrid="false" inkscape:zoom="0.55572065" inkscape:cx="670.3008" inkscape:cy="475.95856" inkscape:window-width="1920" inkscape:window-height="1009" inkscape:window-x="-8" inkscape:window-y="-8" inkscape:window-maximized="1" inkscape:current-layer="svg69" fit-margin-top="0" fit-margin-left="0" fit-margin-right="0" fit-margin-bottom="0" /><defs id="defs5"><clipPath id="todDyLpsAvek"><path fill="none" stroke="none" d="M 0,0 H 2019 V 1059 H 0 Z" id="path2" /></clipPath></defs><path fill="#1565c0" stroke="none" paint-order="stroke fill markers" fill-rule="evenodd" d="M 49.85457,703.3677 128.32543,162.24363 982.65557,463.45594 538.77592,978.46172 Z" fill-opacity="0.0980392" id="path9" /><path fill="none" stroke="#616161" paint-order="fill stroke markers" d="m 983.43027,490.9529 c 0,270.45544 -219.8685,489.70292 -491.09012,489.70292 C 221.11855,980.65582 1.25,761.40834 1.25,490.9529 1.25,220.49745 221.11855,1.25 492.34015,1.25 c 271.22162,0 491.09012,219.24745 491.09012,489.7029 z" stroke-opacity="0.8" stroke-linecap="round" stroke-linejoin="round" stroke-miterlimit="10" stroke-width="2.5" id="path11" /><path fill="none" stroke="#1565c0" paint-order="fill stroke markers" d="M 49.85457,703.3677 128.32543,162.24363" stroke-opacity="0.8" stroke-linecap="round" stroke-linejoin="round" stroke-miterlimit="10" stroke-width="2.5" id="path13" /><path fill="none" stroke="#1565c0" paint-order="fill stroke markers" d="M 128.32543,162.24363 982.65557,463.45594" stroke-opacity="0.8" stroke-linecap="round" stroke-linejoin="round" stroke-miterlimit="10" stroke-width="2.5" id="path15" /><path fill="none" stroke="#1565c0" paint-order="fill stroke markers" d="M 982.65557,463.45594 538.77592,978.46172" stroke-opacity="0.8" stroke-linecap="round" stroke-linejoin="round" stroke-miterlimit="10" stroke-width="2.5" id="path17" /><path fill="none" stroke="#1565c0" paint-order="fill stroke markers" d="M 538.77592,978.46172 49.85457,703.3677" stroke-opacity="0.8" stroke-linecap="round" stroke-linejoin="round" stroke-miterlimit="10" stroke-width="2.5" id="path19" /><path fill="none" stroke="#616161" paint-order="fill stroke markers" d="m 49.85457,703.3677 932.801,-239.91176" stroke-opacity="0.8" stroke-linecap="round" stroke-linejoin="round" stroke-miterlimit="10" stroke-width="2.5" id="path21" /><path fill="none" stroke="#616161" paint-order="fill stroke markers" d="M 128.32543,162.24363 538.77592,978.46172" stroke-opacity="0.8" stroke-linecap="round" stroke-linejoin="round" stroke-miterlimit="10" stroke-width="2.5" id="path23" /><path fill="#1565c0" stroke="none" paint-order="stroke fill markers" d="m 54.85457,703.3677 c 0,2.76142 -2.23858,5 -5,5 -2.76143,0 -5,-2.23858 -5,-5 0,-2.76143 2.23857,-5 5,-5 2.76142,0 5,2.23857 5,5 z" fill-opacity="1" id="path25" /><path fill="none" stroke="#000000" paint-order="fill stroke markers" d="m 54.85457,703.3677 c 0,2.76142 -2.23858,5 -5,5 -2.76143,0 -5,-2.23858 -5,-5 0,-2.76143 2.23857,-5 5,-5 2.76142,0 5,2.23857 5,5 z" stroke-opacity="1" stroke-linecap="round" stroke-linejoin="round" stroke-miterlimit="10" id="path27" /><text fill="#1565c0" stroke="none" font-family="geogebra-sans-serif, sans-serif" font-size="16px" font-style="normal" font-weight="normal" text-decoration="normal" x="53.708771" y="693.4422" text-anchor="start" dominant-baseline="alphabetic" fill-opacity="1" id="text29">A</text><text fill="none" stroke="#ffffff" font-family="geogebra-sans-serif, sans-serif" font-size="16px" font-style="normal" font-weight="normal" text-decoration="normal" x="53.708771" y="693.4422" text-anchor="start" dominant-baseline="alphabetic" stroke-opacity="1" stroke-linejoin="bevel" stroke-miterlimit="10" stroke-width="3" id="text31">A</text><text fill="#1565c0" stroke="none" font-family="geogebra-sans-serif, sans-serif" font-size="16px" font-style="normal" font-weight="normal" text-decoration="normal" x="53.708771" y="693.4422" text-anchor="start" dominant-baseline="alphabetic" fill-opacity="1" id="text33">A</text><path fill="#1565c0" stroke="none" paint-order="stroke fill markers" d="m 133.32543,162.24363 c 0,2.76143 -2.23857,5 -5,5 -2.76142,0 -5,-2.23857 -5,-5 0,-2.76142 2.23858,-5 5,-5 2.76143,0 5,2.23858 5,5 z" fill-opacity="1" id="path35" /><path fill="none" stroke="#000000" paint-order="fill stroke markers" d="m 133.32543,162.24363 c 0,2.76143 -2.23857,5 -5,5 -2.76142,0 -5,-2.23857 -5,-5 0,-2.76142 2.23858,-5 5,-5 2.76143,0 5,2.23858 5,5 z" stroke-opacity="1" stroke-linecap="round" stroke-linejoin="round" stroke-miterlimit="10" id="path37" /><text fill="#1565c0" stroke="none" font-family="geogebra-sans-serif, sans-serif" font-size="16px" font-style="normal" font-weight="normal" text-decoration="normal" x="132.70877" y="152.44221" text-anchor="start" dominant-baseline="alphabetic" fill-opacity="1" id="text39">B</text><text fill="none" stroke="#ffffff" font-family="geogebra-sans-serif, sans-serif" font-size="16px" font-style="normal" font-weight="normal" text-decoration="normal" x="132.70877" y="152.44221" text-anchor="start" dominant-baseline="alphabetic" stroke-opacity="1" stroke-linejoin="bevel" stroke-miterlimit="10" stroke-width="3" id="text41">B</text><text fill="#1565c0" stroke="none" font-family="geogebra-sans-serif, sans-serif" font-size="16px" font-style="normal" font-weight="normal" text-decoration="normal" x="132.70877" y="152.44221" text-anchor="start" dominant-baseline="alphabetic" fill-opacity="1" id="text43">B</text><path fill="#1565c0" stroke="none" paint-order="stroke fill markers" d="m 987.65557,463.45594 c 0,2.76142 -2.2386,5 -5,5 -2.7615,0 -5,-2.23858 -5,-5 0,-2.76143 2.2385,-5 5,-5 2.7614,0 5,2.23857 5,5 z" fill-opacity="1" id="path45" /><path fill="none" stroke="#000000" paint-order="fill stroke markers" d="m 987.65557,463.45594 c 0,2.76142 -2.2386,5 -5,5 -2.7615,0 -5,-2.23858 -5,-5 0,-2.76143 2.2385,-5 5,-5 2.7614,0 5,2.23857 5,5 z" stroke-opacity="1" stroke-linecap="round" stroke-linejoin="round" stroke-miterlimit="10" id="path47" /><text fill="#1565c0" stroke="none" font-family="geogebra-sans-serif, sans-serif" font-size="16px" font-style="normal" font-weight="normal" text-decoration="normal" x="986.70874" y="453.44223" text-anchor="start" dominant-baseline="alphabetic" fill-opacity="1" id="text49">C</text><text fill="none" stroke="#ffffff" font-family="geogebra-sans-serif, sans-serif" font-size="16px" font-style="normal" font-weight="normal" text-decoration="normal" x="986.70874" y="453.44223" text-anchor="start" dominant-baseline="alphabetic" stroke-opacity="1" stroke-linejoin="bevel" stroke-miterlimit="10" stroke-width="3" id="text51">C</text><text fill="#1565c0" stroke="none" font-family="geogebra-sans-serif, sans-serif" font-size="16px" font-style="normal" font-weight="normal" text-decoration="normal" x="986.70874" y="453.44223" text-anchor="start" dominant-baseline="alphabetic" fill-opacity="1" id="text53">C</text><path fill="#1565c0" stroke="none" paint-order="stroke fill markers" d="m 543.77592,978.46172 c 0,2.7614 -2.23857,5 -5,5 -2.76142,0 -5,-2.2386 -5,-5 0,-2.7615 2.23858,-5 5,-5 2.76143,0 5,2.2385 5,5 z" fill-opacity="1" id="path55" /><path fill="none" stroke="#000000" paint-order="fill stroke markers" d="m 543.77592,978.46172 c 0,2.7614 -2.23857,5 -5,5 -2.76142,0 -5,-2.2386 -5,-5 0,-2.7615 2.23858,-5 5,-5 2.76143,0 5,2.2385 5,5 z" stroke-opacity="1" stroke-linecap="round" stroke-linejoin="round" stroke-miterlimit="10" id="path57" /><text fill="#1565c0" stroke="none" font-family="geogebra-sans-serif, sans-serif" font-size="16px" font-style="normal" font-weight="normal" text-decoration="normal" x="542.70874" y="968.4422" text-anchor="start" dominant-baseline="alphabetic" fill-opacity="1" id="text59">D</text><text fill="none" stroke="#ffffff" font-family="geogebra-sans-serif, sans-serif" font-size="16px" font-style="normal" font-weight="normal" text-decoration="normal" x="542.70874" y="968.4422" text-anchor="start" dominant-baseline="alphabetic" stroke-opacity="1" stroke-linejoin="bevel" stroke-miterlimit="10" stroke-width="3" id="text61">D</text><text fill="#1565c0" stroke="none" font-family="geogebra-sans-serif, sans-serif" font-size="16px" font-style="normal" font-weight="normal" text-decoration="normal" x="542.70874" y="968.4422" text-anchor="start" dominant-baseline="alphabetic" fill-opacity="1" id="text63">D</text></svg>