<?xml version="1.0" encoding="UTF-8" standalone="no"?><svg version="1.1" width="1025.9766" height="616.7796" id="svg69" sodipodi:docname="sieczne.svg" inkscape:version="1.1.1 (3bf5ae0d25, 2021-09-20)" xmlns:inkscape="http://www.inkscape.org/namespaces/inkscape" xmlns:sodipodi="http://sodipodi.sourceforge.net/DTD/sodipodi-0.dtd" xmlns="http://www.w3.org/2000/svg" xmlns:svg="http://www.w3.org/2000/svg"><sodipodi:namedview id="namedview71" pagecolor="#ffffff" bordercolor="#666666" borderopacity="1.0" inkscape:pageshadow="2" inkscape:pageopacity="0.0" inkscape:pagecheckerboard="0" showgrid="false" fit-margin-top="0" fit-margin-left="0" fit-margin-right="0" fit-margin-bottom="0" inkscape:zoom="0.48195876" inkscape:cx="1165.0374" inkscape:cy="333.01604" inkscape:window-width="1920" inkscape:window-height="1009" inkscape:window-x="-8" inkscape:window-y="-8" inkscape:window-maximized="1" inkscape:current-layer="svg69" /><defs id="defs5"><clipPath id="OWzirULfoXDR"><path fill="none" stroke="none" d="M 0,0 H 2328 V 1142 H 0 Z" id="path2" /></clipPath></defs><path fill="none" stroke="#616161" paint-order="fill stroke markers" d="m 727.66295,314.87752 c 0,166.04557 -134.60653,300.6521 -300.65211,300.6521 -166.04557,0 -300.6521,-134.60653 -300.6521,-300.6521 0,-166.04557 134.60653,-300.6521 300.6521,-300.6521 166.04558,0 300.65211,134.60653 300.65211,300.6521 z" stroke-opacity="0.8" stroke-linecap="round" stroke-linejoin="round" stroke-miterlimit="10" stroke-width="2.5" id="path9" /><path fill="none" stroke="#616161" paint-order="fill stroke markers" d="M 1011.6777,272.31868 1.25,1.25" stroke-opacity="0.8" stroke-linecap="round" stroke-linejoin="round" stroke-miterlimit="10" stroke-width="2.5" id="path11" /><path fill="none" stroke="#616161" paint-order="fill stroke markers" d="M 1011.6777,272.31868 1.25,516.8781" stroke-opacity="0.8" stroke-linecap="round" stroke-linejoin="round" stroke-miterlimit="10" stroke-width="2.5" id="path13" /><path fill="#1565c0" stroke="none" paint-order="stroke fill markers" d="m 704.89331,188.6759 c 0,2.76143 -2.23858,5 -5,5 -2.76143,0 -5,-2.23857 -5,-5 0,-2.76142 2.23857,-5 5,-5 2.76142,0 5,2.23858 5,5 z" fill-opacity="1" id="path15" /><path fill="none" stroke="#000000" paint-order="fill stroke markers" d="m 704.89331,188.6759 c 0,2.76143 -2.23858,5 -5,5 -2.76143,0 -5,-2.23857 -5,-5 0,-2.76142 2.23857,-5 5,-5 2.76142,0 5,2.23858 5,5 z" stroke-opacity="1" stroke-linecap="round" stroke-linejoin="round" stroke-miterlimit="10" id="path17" /><text fill="#1565c0" stroke="none" font-family="geogebra-sans-serif, sans-serif" font-size="16px" font-style="normal" font-weight="normal" text-decoration="normal" x="704.25" y="178.22685" text-anchor="start" dominant-baseline="alphabetic" fill-opacity="1" id="text19">A</text><text fill="none" stroke="#ffffff" font-family="geogebra-sans-serif, sans-serif" font-size="16px" font-style="normal" font-weight="normal" text-decoration="normal" x="704.25" y="178.22685" text-anchor="start" dominant-baseline="alphabetic" stroke-opacity="1" stroke-linejoin="bevel" stroke-miterlimit="10" stroke-width="3" id="text21">A</text><text fill="#1565c0" stroke="none" font-family="geogebra-sans-serif, sans-serif" font-size="16px" font-style="normal" font-weight="normal" text-decoration="normal" x="704.25" y="178.22685" text-anchor="start" dominant-baseline="alphabetic" fill-opacity="1" id="text23">A</text><path fill="#1565c0" stroke="none" paint-order="stroke fill markers" d="m 258.9362,69.03844 c 0,2.76142 -2.23858,5 -5,5 -2.76143,0 -5,-2.23858 -5,-5 0,-2.76142 2.23857,-5 5,-5 2.76142,0 5,2.23858 5,5 z" fill-opacity="1" id="path25" /><path fill="none" stroke="#000000" paint-order="fill stroke markers" d="m 258.9362,69.03844 c 0,2.76142 -2.23858,5 -5,5 -2.76143,0 -5,-2.23858 -5,-5 0,-2.76142 2.23857,-5 5,-5 2.76142,0 5,2.23858 5,5 z" stroke-opacity="1" stroke-linecap="round" stroke-linejoin="round" stroke-miterlimit="10" id="path27" /><text fill="#1565c0" stroke="none" font-family="geogebra-sans-serif, sans-serif" font-size="16px" font-style="normal" font-weight="normal" text-decoration="normal" x="258.25" y="59.22686" text-anchor="start" dominant-baseline="alphabetic" fill-opacity="1" id="text29">B</text><text fill="none" stroke="#ffffff" font-family="geogebra-sans-serif, sans-serif" font-size="16px" font-style="normal" font-weight="normal" text-decoration="normal" x="258.25" y="59.22686" text-anchor="start" dominant-baseline="alphabetic" stroke-opacity="1" stroke-linejoin="bevel" stroke-miterlimit="10" stroke-width="3" id="text31">B</text><text fill="#1565c0" stroke="none" font-family="geogebra-sans-serif, sans-serif" font-size="16px" font-style="normal" font-weight="normal" text-decoration="normal" x="258.25" y="59.22686" text-anchor="start" dominant-baseline="alphabetic" fill-opacity="1" id="text33">B</text><path fill="#1565c0" stroke="none" paint-order="stroke fill markers" d="m 177.77458,475.36306 c 0,2.76142 -2.23858,5 -5,5 -2.76143,0 -5,-2.23858 -5,-5 0,-2.76143 2.23857,-5 5,-5 2.76142,0 5,2.23857 5,5 z" fill-opacity="1" id="path35" /><path fill="none" stroke="#000000" paint-order="fill stroke markers" d="m 177.77458,475.36306 c 0,2.76142 -2.23858,5 -5,5 -2.76143,0 -5,-2.23858 -5,-5 0,-2.76143 2.23857,-5 5,-5 2.76142,0 5,2.23857 5,5 z" stroke-opacity="1" stroke-linecap="round" stroke-linejoin="round" stroke-miterlimit="10" id="path37" /><text fill="#1565c0" stroke="none" font-family="geogebra-sans-serif, sans-serif" font-size="16px" font-style="normal" font-weight="normal" text-decoration="normal" x="177.25" y="465.22687" text-anchor="start" dominant-baseline="alphabetic" fill-opacity="1" id="text39">C</text><text fill="none" stroke="#ffffff" font-family="geogebra-sans-serif, sans-serif" font-size="16px" font-style="normal" font-weight="normal" text-decoration="normal" x="177.25" y="465.22687" text-anchor="start" dominant-baseline="alphabetic" stroke-opacity="1" stroke-linejoin="bevel" stroke-miterlimit="10" stroke-width="3" id="text41">C</text><text fill="#1565c0" stroke="none" font-family="geogebra-sans-serif, sans-serif" font-size="16px" font-style="normal" font-weight="normal" text-decoration="normal" x="177.25" y="465.22687" text-anchor="start" dominant-baseline="alphabetic" fill-opacity="1" id="text43">C</text><path fill="#1565c0" stroke="none" paint-order="stroke fill markers" d="m 731.49586,341.34282 c 0,2.76142 -2.23857,5 -5,5 -2.76142,0 -5,-2.23858 -5,-5 0,-2.76143 2.23858,-5 5,-5 2.76143,0 5,2.23857 5,5 z" fill-opacity="1" id="path45" /><path fill="none" stroke="#000000" paint-order="fill stroke markers" d="m 731.49586,341.34282 c 0,2.76142 -2.23857,5 -5,5 -2.76142,0 -5,-2.23858 -5,-5 0,-2.76143 2.23858,-5 5,-5 2.76143,0 5,2.23857 5,5 z" stroke-opacity="1" stroke-linecap="round" stroke-linejoin="round" stroke-miterlimit="10" id="path47" /><text fill="#1565c0" stroke="none" font-family="geogebra-sans-serif, sans-serif" font-size="16px" font-style="normal" font-weight="normal" text-decoration="normal" x="730.25" y="331.22687" text-anchor="start" dominant-baseline="alphabetic" fill-opacity="1" id="text49">D</text><text fill="none" stroke="#ffffff" font-family="geogebra-sans-serif, sans-serif" font-size="16px" font-style="normal" font-weight="normal" text-decoration="normal" x="730.25" y="331.22687" text-anchor="start" dominant-baseline="alphabetic" stroke-opacity="1" stroke-linejoin="bevel" stroke-miterlimit="10" stroke-width="3" id="text51">D</text><text fill="#1565c0" stroke="none" font-family="geogebra-sans-serif, sans-serif" font-size="16px" font-style="normal" font-weight="normal" text-decoration="normal" x="730.25" y="331.22687" text-anchor="start" dominant-baseline="alphabetic" fill-opacity="1" id="text53">D</text><path fill="#616161" stroke="none" paint-order="stroke fill markers" d="m 1015.6777,272.31868 c 0,2.20914 -1.7909,4 -4,4 -2.2092,0 -4,-1.79086 -4,-4 0,-2.20914 1.7908,-4 4,-4 2.2091,0 4,1.79086 4,4 z" fill-opacity="1" id="path55" /><path fill="none" stroke="#000000" paint-order="fill stroke markers" d="m 1015.6777,272.31868 c 0,2.20914 -1.7909,4 -4,4 -2.2092,0 -4,-1.79086 -4,-4 0,-2.20914 1.7908,-4 4,-4 2.2091,0 4,1.79086 4,4 z" stroke-opacity="1" stroke-linecap="round" stroke-linejoin="round" stroke-miterlimit="10" id="path57" /><text fill="#616161" stroke="none" font-family="geogebra-sans-serif, sans-serif" font-size="16px" font-style="normal" font-weight="normal" text-decoration="normal" x="1015.25" y="264.22687" text-anchor="start" dominant-baseline="alphabetic" fill-opacity="1" id="text59">E</text><text fill="none" stroke="#ffffff" font-family="geogebra-sans-serif, sans-serif" font-size="16px" font-style="normal" font-weight="normal" text-decoration="normal" x="1015.25" y="264.22687" text-anchor="start" dominant-baseline="alphabetic" stroke-opacity="1" stroke-linejoin="bevel" stroke-miterlimit="10" stroke-width="3" id="text61">E</text><text fill="#616161" stroke="none" font-family="geogebra-sans-serif, sans-serif" font-size="16px" font-style="normal" font-weight="normal" text-decoration="normal" x="1015.25" y="264.22687" text-anchor="start" dominant-baseline="alphabetic" fill-opacity="1" id="text63">E</text></svg>