<?xml version="1.0" encoding="UTF-8" standalone="no"?><svg version="1.1" width="643.32147" height="323.82526" id="svg87" sodipodi:docname="trapez.svg" inkscape:version="1.1.1 (3bf5ae0d25, 2021-09-20)" xmlns:inkscape="http://www.inkscape.org/namespaces/inkscape" xmlns:sodipodi="http://sodipodi.sourceforge.net/DTD/sodipodi-0.dtd" xmlns="http://www.w3.org/2000/svg" xmlns:svg="http://www.w3.org/2000/svg"><sodipodi:namedview id="namedview89" pagecolor="#ffffff" bordercolor="#666666" borderopacity="1.0" inkscape:pageshadow="2" inkscape:pageopacity="0.0" inkscape:pagecheckerboard="0" showgrid="false" fit-margin-top="0" fit-margin-left="0" fit-margin-right="0" fit-margin-bottom="0" inkscape:zoom="0.78590769" inkscape:cx="392.53974" inkscape:cy="267.84316" inkscape:window-width="1920" inkscape:window-height="1009" inkscape:window-x="-8" inkscape:window-y="-8" inkscape:window-maximized="1" inkscape:current-layer="svg87" /><defs id="defs5"><clipPath id="UosmlPJvShom"><path fill="none" stroke="none" d="M 0,0 H 2019 V 1142 H 0 Z" id="path2" /></clipPath></defs><path fill="#1565c0" stroke="none" paint-order="stroke fill markers" fill-rule="evenodd" d="M 640.56878,321.07258 534.1827,2.752684 H 215.02441 L 2.252204,321.07258 Z" fill-opacity="0.0980392" id="path9" style="stroke-width:0.500488" /><path fill="none" stroke="#616161" paint-order="fill stroke markers" d="M 2.252204,321.07258 H 640.56878" stroke-opacity="0.8" stroke-linecap="round" stroke-linejoin="round" stroke-miterlimit="10" stroke-width="1.25122" id="path11" /><path fill="none" stroke="#616161" paint-order="fill stroke markers" d="M 534.1827,2.752684 H 215.02441" stroke-opacity="0.8" stroke-linecap="round" stroke-linejoin="round" stroke-miterlimit="10" stroke-width="1.25122" id="path13" /><path fill="none" stroke="#1565c0" paint-order="fill stroke markers" d="M 640.56878,321.07258 534.1827,2.752684" stroke-opacity="0.8" stroke-linecap="round" stroke-linejoin="round" stroke-miterlimit="10" stroke-width="1.25122" id="path15" /><path fill="none" stroke="#1565c0" paint-order="fill stroke markers" d="M 534.1827,2.752684 H 215.02441" stroke-opacity="0.8" stroke-linecap="round" stroke-linejoin="round" stroke-miterlimit="10" stroke-width="1.25122" id="path17" /><path fill="none" stroke="#1565c0" paint-order="fill stroke markers" d="M 215.02441,2.752684 2.252204,321.07258" stroke-opacity="0.8" stroke-linecap="round" stroke-linejoin="round" stroke-miterlimit="10" stroke-width="1.25122" id="path19" /><path fill="none" stroke="#1565c0" paint-order="fill stroke markers" d="M 2.252204,321.07258 H 640.56878" stroke-opacity="0.8" stroke-linecap="round" stroke-linejoin="round" stroke-miterlimit="10" stroke-width="1.25122" id="path21" /><path fill="none" stroke="#d32f2f" paint-order="fill stroke markers" d="M 215.02441,2.752684 640.56878,321.07258" stroke-opacity="0.8" stroke-linecap="round" stroke-linejoin="round" stroke-miterlimit="10" stroke-width="1.25122" id="path23" /><path fill="none" stroke="#d32f2f" paint-order="fill stroke markers" d="M 534.1827,2.752684 2.252204,321.07258" stroke-opacity="0.8" stroke-linecap="round" stroke-linejoin="round" stroke-miterlimit="10" stroke-width="1.25122" id="path25" /><path fill="#1565c0" stroke="none" paint-order="stroke fill markers" d="m 4.254154,321.07258 c 0,1.10564 -0.89631,2.00195 -2.00195,2.00195 -1.10565,0 -2.00196001,-0.89631 -2.00196001,-2.00195 0,-1.10565 0.89631001,-2.00196 2.00196001,-2.00196 1.10564,0 2.00195,0.89631 2.00195,2.00196 z" fill-opacity="1" id="path27" style="stroke-width:0.500488" /><path fill="none" stroke="#000000" paint-order="fill stroke markers" d="m 4.254154,321.07258 c 0,1.10564 -0.89631,2.00195 -2.00195,2.00195 -1.10565,0 -2.00196001,-0.89631 -2.00196001,-2.00195 0,-1.10565 0.89631001,-2.00196 2.00196001,-2.00196 1.10564,0 2.00195,0.89631 2.00195,2.00196 z" stroke-opacity="1" stroke-linecap="round" stroke-linejoin="round" stroke-miterlimit="10" id="path29" style="stroke-width:0.500488" /><path fill="#1565c0" stroke="none" paint-order="stroke fill markers" d="m 643.07122,321.07258 c 0,1.38205 -1.12035,2.50244 -2.50244,2.50244 -1.38205,0 -2.50245,-1.12039 -2.50245,-2.50244 0,-1.38207 1.1204,-2.50245 2.50245,-2.50245 1.38209,0 2.50244,1.12038 2.50244,2.50245 z" fill-opacity="1" id="path31" style="stroke-width:0.500488" /><path fill="none" stroke="#000000" paint-order="fill stroke markers" d="m 643.07122,321.07258 c 0,1.38205 -1.12035,2.50244 -2.50244,2.50244 -1.38205,0 -2.50245,-1.12039 -2.50245,-2.50244 0,-1.38207 1.1204,-2.50245 2.50245,-2.50245 1.38209,0 2.50244,1.12038 2.50244,2.50245 z" stroke-opacity="1" stroke-linecap="round" stroke-linejoin="round" stroke-miterlimit="10" id="path33" style="stroke-width:0.500488" /><path fill="#1565c0" stroke="none" paint-order="stroke fill markers" d="m 536.68514,2.752684 c 0,1.38206 -1.1204,2.50245 -2.50244,2.50245 -1.38205,0 -2.50245,-1.12039 -2.50245,-2.50245 0,-1.38206 1.1204,-2.50244001 2.50245,-2.50244001 1.38204,0 2.50244,1.12038001 2.50244,2.50244001 z" fill-opacity="1" id="path35" style="stroke-width:0.500488" /><path fill="none" stroke="#000000" paint-order="fill stroke markers" d="m 536.68514,2.752684 c 0,1.38206 -1.1204,2.50245 -2.50244,2.50245 -1.38205,0 -2.50245,-1.12039 -2.50245,-2.50245 0,-1.38206 1.1204,-2.50244001 2.50245,-2.50244001 1.38204,0 2.50244,1.12038001 2.50244,2.50244001 z" stroke-opacity="1" stroke-linecap="round" stroke-linejoin="round" stroke-miterlimit="10" id="path37" style="stroke-width:0.500488" /><path fill="#1565c0" stroke="none" paint-order="stroke fill markers" d="m 217.52685,2.752684 c 0,1.38206 -1.12039,2.50245 -2.50244,2.50245 -1.38207,0 -2.50245,-1.12039 -2.50245,-2.50245 0,-1.38206 1.12038,-2.50244001 2.50245,-2.50244001 1.38205,0 2.50244,1.12038001 2.50244,2.50244001 z" fill-opacity="1" id="path39" style="stroke-width:0.500488" /><path fill="none" stroke="#000000" paint-order="fill stroke markers" d="m 217.52685,2.752684 c 0,1.38206 -1.12039,2.50245 -2.50244,2.50245 -1.38207,0 -2.50245,-1.12039 -2.50245,-2.50245 0,-1.38206 1.12038,-2.50244001 2.50245,-2.50244001 1.38205,0 2.50244,1.12038001 2.50244,2.50244001 z" stroke-opacity="1" stroke-linecap="round" stroke-linejoin="round" stroke-miterlimit="10" id="path41" style="stroke-width:0.500488" /><g transform="matrix(17.517096,0,0,17.517096,203.43652,98.362364)" id="g45"><path fill="#000000" stroke="none" paint-order="stroke fill markers" d="m 0.303,-0.316 v 0 l -0.062,0.25 -0.003,0.017 q 0,0.017 0.046,0.018 v 0 0 h 0.019 q 0.026,0 0.028,0.011 Q 0.331,0 0.311,0 L 0.247,-0.002 H 0.246 L 0.184,-0.003 H 0.182 L 0.056,0 H 0.055 Q 0.04,0 0.04,-0.012 q 0,-0.017 0.016,-0.019 h 0.012 q 0.065,0 0.078,-0.014 0.006,-0.007 0.012,-0.028 0,-0.001 0.001,-0.005 l 0.134,-0.537 q 0.004,-0.016 0.004,-0.019 0,-0.012 -0.016,-0.015 H 0.28 v 0 Q 0.278,-0.65 0.275,-0.65 0.251,-0.652 0.232,-0.652 q -0.026,0 -0.028,-0.008 -10e-4,-0.002 -10e-4,-0.004 0,-0.017 0.017,-0.019 v 0 h 0.013 0.324 q 0.121,0 0.173,0.074 0.024,0.035 0.024,0.077 0,0.081 -0.083,0.147 -0.088,0.069 -0.198,0.069 h -0.17 m 0.072,-0.298 -0.068,0.272 h 0.141 q 0.095,0 0.154,-0.053 0.041,-0.038 0.056,-0.127 v -0.001 q 0.003,-0.019 0.003,-0.033 0,-0.096 -0.136,-0.096 H 0.429 q -0.036,0 -0.044,0.01 v 0 0.001 H 0.384 V -0.64 Q 0.38,-0.634 0.375,-0.614 Z" id="path43" /></g><g transform="matrix(12.261967,0,0,12.261967,214.6825,100.98992)" id="g49"><path fill="#000000" stroke="none" paint-order="stroke fill markers" d="m 0.29,-0.352 v 0 q 0.1,0.02 0.144,0.098 0.023,0.039 0.023,0.083 0,0.085 -0.07,0.143 -0.061,0.05 -0.143,0.05 -0.099,0 -0.159,-0.059 -0.043,-0.042 -0.043,-0.098 0,-0.047 0.042,-0.056 0.007,-0.002 0.014,-0.002 0.038,0 0.051,0.032 0.004,0.013 0.005,0.024 0,0.04 -0.036,0.052 -0.014,0.005 -0.03,0.003 0.037,0.062 0.128,0.074 0.013,0.002 0.025,0.002 0.064,0 0.094,-0.063 0.019,-0.04 0.019,-0.102 0,-0.133 -0.08,-0.16 Q 0.256,-0.337 0.235,-0.337 H 0.191 q -0.022,0 -0.024,-0.011 0,-0.01 0.015,-0.012 0.015,0 0.039,-0.003 0.051,-0.002 0.08,-0.039 v -0.001 l 0.001,-0.001 0.001,-0.001 h 0.001 l 0.006,-0.01 q 0.028,-0.047 0.028,-0.114 0,-0.093 -0.072,-0.109 -0.012,-0.003 -0.024,-0.003 -0.07,0 -0.114,0.04 -0.011,0.01 -0.019,0.022 0.062,0 0.062,0.05 0,0.036 -0.031,0.048 -0.009,0.003 -0.02,0.003 -0.039,0 -0.049,-0.035 v 0 -0.001 Q 0.069,-0.522 0.069,-0.53 q 0,-0.067 0.066,-0.107 0.048,-0.029 0.111,-0.029 0.091,0 0.147,0.054 l 0.002,0.002 q 0.035,0.036 0.035,0.082 0,0.083 -0.071,0.139 -0.031,0.024 -0.069,0.037 z" id="path47" /></g><g transform="matrix(17.517096,0,0,17.517096,482.70906,105.3692)" id="g55"><path fill="#000000" stroke="none" paint-order="stroke fill markers" d="m 0.303,-0.316 v 0 l -0.062,0.25 -0.003,0.017 q 0,0.017 0.046,0.018 v 0 0 h 0.019 q 0.026,0 0.028,0.011 Q 0.331,0 0.311,0 L 0.247,-0.002 H 0.246 L 0.184,-0.003 H 0.182 L 0.056,0 H 0.055 Q 0.04,0 0.04,-0.012 q 0,-0.017 0.016,-0.019 h 0.012 q 0.065,0 0.078,-0.014 0.006,-0.007 0.012,-0.028 0,-0.001 0.001,-0.005 l 0.134,-0.537 q 0.004,-0.016 0.004,-0.019 0,-0.012 -0.016,-0.015 H 0.28 v 0 Q 0.278,-0.65 0.275,-0.65 0.251,-0.652 0.232,-0.652 q -0.026,0 -0.028,-0.008 -10e-4,-0.002 -10e-4,-0.004 0,-0.017 0.017,-0.019 v 0 h 0.013 0.324 q 0.121,0 0.173,0.074 0.024,0.035 0.024,0.077 0,0.081 -0.083,0.147 -0.088,0.069 -0.198,0.069 h -0.17 m 0.072,-0.298 -0.068,0.272 h 0.141 q 0.095,0 0.154,-0.053 0.041,-0.038 0.056,-0.127 v -0.001 q 0.003,-0.019 0.003,-0.033 0,-0.096 -0.136,-0.096 H 0.429 q -0.036,0 -0.044,0.01 v 0 0.001 H 0.384 V -0.64 Q 0.38,-0.634 0.375,-0.614 Z" id="path53" /></g><g transform="matrix(12.261967,0,0,12.261967,493.95503,107.99676)" id="g59"><path fill="#000000" stroke="none" paint-order="stroke fill markers" d="m 0.29,-0.352 v 0 q 0.1,0.02 0.144,0.098 0.023,0.039 0.023,0.083 0,0.085 -0.07,0.143 -0.061,0.05 -0.143,0.05 -0.099,0 -0.159,-0.059 -0.043,-0.042 -0.043,-0.098 0,-0.047 0.042,-0.056 0.007,-0.002 0.014,-0.002 0.038,0 0.051,0.032 0.004,0.013 0.005,0.024 0,0.04 -0.036,0.052 -0.014,0.005 -0.03,0.003 0.037,0.062 0.128,0.074 0.013,0.002 0.025,0.002 0.064,0 0.094,-0.063 0.019,-0.04 0.019,-0.102 0,-0.133 -0.08,-0.16 Q 0.256,-0.337 0.235,-0.337 H 0.191 q -0.022,0 -0.024,-0.011 0,-0.01 0.015,-0.012 0.015,0 0.039,-0.003 0.051,-0.002 0.08,-0.039 v -0.001 l 0.001,-0.001 0.001,-0.001 h 0.001 l 0.006,-0.01 q 0.028,-0.047 0.028,-0.114 0,-0.093 -0.072,-0.109 -0.012,-0.003 -0.024,-0.003 -0.07,0 -0.114,0.04 -0.011,0.01 -0.019,0.022 0.062,0 0.062,0.05 0,0.036 -0.031,0.048 -0.009,0.003 -0.02,0.003 -0.039,0 -0.049,-0.035 v 0 -0.001 Q 0.069,-0.522 0.069,-0.53 q 0,-0.067 0.066,-0.107 0.048,-0.029 0.111,-0.029 0.091,0 0.147,0.054 l 0.002,0.002 q 0.035,0.036 0.035,0.082 0,0.083 -0.071,0.139 -0.031,0.024 -0.069,0.037 z" id="path57" /></g><g transform="matrix(17.517096,0,0,17.517096,337.06694,37.302774)" id="g65"><path fill="#000000" stroke="none" paint-order="stroke fill markers" d="m 0.303,-0.316 v 0 l -0.062,0.25 -0.003,0.017 q 0,0.017 0.046,0.018 v 0 0 h 0.019 q 0.026,0 0.028,0.011 Q 0.331,0 0.311,0 L 0.247,-0.002 H 0.246 L 0.184,-0.003 H 0.182 L 0.056,0 H 0.055 Q 0.04,0 0.04,-0.012 q 0,-0.017 0.016,-0.019 h 0.012 q 0.065,0 0.078,-0.014 0.006,-0.007 0.012,-0.028 0,-0.001 0.001,-0.005 l 0.134,-0.537 q 0.004,-0.016 0.004,-0.019 0,-0.012 -0.016,-0.015 H 0.28 v 0 Q 0.278,-0.65 0.275,-0.65 0.251,-0.652 0.232,-0.652 q -0.026,0 -0.028,-0.008 -10e-4,-0.002 -10e-4,-0.004 0,-0.017 0.017,-0.019 v 0 h 0.013 0.324 q 0.121,0 0.173,0.074 0.024,0.035 0.024,0.077 0,0.081 -0.083,0.147 -0.088,0.069 -0.198,0.069 h -0.17 m 0.072,-0.298 -0.068,0.272 h 0.141 q 0.095,0 0.154,-0.053 0.041,-0.038 0.056,-0.127 v -0.001 q 0.003,-0.019 0.003,-0.033 0,-0.096 -0.136,-0.096 H 0.429 q -0.036,0 -0.044,0.01 v 0 0.001 H 0.384 V -0.64 Q 0.38,-0.634 0.375,-0.614 Z" id="path63" /></g><g transform="matrix(12.261967,0,0,12.261967,348.31291,39.930334)" id="g69"><path fill="#000000" stroke="none" paint-order="stroke fill markers" d="m 0.449,-0.174 v 0 L 0.421,0 H 0.05 q 0,-0.025 0.006,-0.032 l 0.005,-0.005 0.192,-0.214 q 0.105,-0.118 0.105,-0.221 0,-0.089 -0.054,-0.135 L 0.303,-0.608 H 0.302 Q 0.27,-0.635 0.224,-0.635 q -0.072,0 -0.115,0.062 -0.012,0.018 -0.02,0.04 0.003,-0.001 0.013,-0.001 0.04,0 0.051,0.036 v 0.001 q 0.002,0.007 0.002,0.015 0,0.04 -0.038,0.051 -0.008,0.002 -0.014,0.002 -0.037,0 -0.049,-0.031 -0.004,-0.011 -0.004,-0.025 0,-0.077 0.059,-0.132 0.053,-0.049 0.128,-0.049 0.11,0 0.171,0.074 0.035,0.043 0.04,0.102 0.001,0.009 0.001,0.018 0,0.073 -0.055,0.139 -0.029,0.034 -0.09,0.09 l -0.061,0.054 -0.01,0.009 -0.106,0.103 h 0.18 q 0.088,0 0.095,-0.008 0.01,-0.014 0.022,-0.089 z" id="path67" /></g><g transform="matrix(17.517096,0,0,17.517096,328.05814,234.49522)" id="g75"><path fill="#000000" stroke="none" paint-order="stroke fill markers" d="m 0.303,-0.316 v 0 l -0.062,0.25 -0.003,0.017 q 0,0.017 0.046,0.018 v 0 0 h 0.019 q 0.026,0 0.028,0.011 Q 0.331,0 0.311,0 L 0.247,-0.002 H 0.246 L 0.184,-0.003 H 0.182 L 0.056,0 H 0.055 Q 0.04,0 0.04,-0.012 q 0,-0.017 0.016,-0.019 h 0.012 q 0.065,0 0.078,-0.014 0.006,-0.007 0.012,-0.028 0,-0.001 0.001,-0.005 l 0.134,-0.537 q 0.004,-0.016 0.004,-0.019 0,-0.012 -0.016,-0.015 H 0.28 v 0 Q 0.278,-0.65 0.275,-0.65 0.251,-0.652 0.232,-0.652 q -0.026,0 -0.028,-0.008 -10e-4,-0.002 -10e-4,-0.004 0,-0.017 0.017,-0.019 v 0 h 0.013 0.324 q 0.121,0 0.173,0.074 0.024,0.035 0.024,0.077 0,0.081 -0.083,0.147 -0.088,0.069 -0.198,0.069 h -0.17 m 0.072,-0.298 -0.068,0.272 h 0.141 q 0.095,0 0.154,-0.053 0.041,-0.038 0.056,-0.127 v -0.001 q 0.003,-0.019 0.003,-0.033 0,-0.096 -0.136,-0.096 H 0.429 q -0.036,0 -0.044,0.01 v 0 0.001 H 0.384 V -0.64 Q 0.38,-0.634 0.375,-0.614 Z" id="path73" /></g><g transform="matrix(12.261967,0,0,12.261967,339.30411,237.12279)" id="g79"><path fill="#000000" stroke="none" paint-order="stroke fill markers" d="m 0.294,-0.64 v 0.561 q 0,0.03 0.012,0.038 0.017,0.01 0.081,0.01 H 0.419 V 0 Q 0.384,-0.003 0.257,-0.003 0.13,-0.003 0.095,0 v -0.031 h 0.032 q 0.077,0 0.088,-0.018 L 0.216,-0.05 Q 0.22,-0.058 0.22,-0.079 v -0.518 q -0.052,0.026 -0.131,0.026 v -0.031 q 0.12,0 0.182,-0.064 0.019,0 0.022,0.007 v 0 0.001 q 0.001,0.003 0.001,0.018 z" id="path77" /></g></svg>