<?xml version="1.0" encoding="UTF-8" standalone="no"?>
<svg
   version="1.1"
   width="1285.3872"
   height="764.89069"
   id="svg89"
   sodipodi:docname="czworokat.svg"
   inkscape:version="1.1.1 (3bf5ae0d25, 2021-09-20)"
   xmlns:inkscape="http://www.inkscape.org/namespaces/inkscape"
   xmlns:sodipodi="http://sodipodi.sourceforge.net/DTD/sodipodi-0.dtd"
   xmlns="http://www.w3.org/2000/svg"
   xmlns:svg="http://www.w3.org/2000/svg">
  <sodipodi:namedview
     id="namedview91"
     pagecolor="#ffffff"
     bordercolor="#666666"
     borderopacity="1.0"
     inkscape:pageshadow="2"
     inkscape:pageopacity="0.0"
     inkscape:pagecheckerboard="0"
     showgrid="false"
     fit-margin-top="0"
     fit-margin-left="0"
     fit-margin-right="0"
     fit-margin-bottom="0"
     inkscape:zoom="0.78590768"
     inkscape:cx="578.3122"
     inkscape:cy="437.07424"
     inkscape:window-width="1920"
     inkscape:window-height="1009"
     inkscape:window-x="-8"
     inkscape:window-y="-8"
     inkscape:window-maximized="1"
     inkscape:current-layer="svg89" />
  <defs
     id="defs5">
    <clipPath
       id="FJXoIOkqleeX">
      <path
         fill="none"
         stroke="none"
         d="M 0,0 H 2019 V 1059 H 0 Z"
         id="path2" />
    </clipPath>
  </defs>
  <path
     fill="#1565c0"
     stroke="none"
     paint-order="stroke fill markers"
     fill-rule="evenodd"
     d="M 1279.8872,759.39071 1028.4759,146.5 395.47594,5.5 4.5,759.39071 Z"
     fill-opacity="0.0980392"
     id="path9" />
  <path
     fill="none"
     stroke="#616161"
     paint-order="fill stroke markers"
     d="M 4.5,759.39071 H 1279.8872"
     stroke-opacity="0.8"
     stroke-linecap="round"
     stroke-linejoin="round"
     stroke-miterlimit="10"
     stroke-width="2.5"
     id="path11" />
  <path
     fill="none"
     stroke="#616161"
     paint-order="fill stroke markers"
     d="M 1028.4759,146.5 395.47594,5.5"
     stroke-opacity="0.8"
     stroke-linecap="round"
     stroke-linejoin="round"
     stroke-miterlimit="10"
     stroke-width="2.5"
     id="path13" />
  <path
     fill="none"
     stroke="#1565c0"
     paint-order="fill stroke markers"
     d="M 1279.8872,759.39071 1028.4759,146.5"
     stroke-opacity="0.8"
     stroke-linecap="round"
     stroke-linejoin="round"
     stroke-miterlimit="10"
     stroke-width="2.5"
     id="path15" />
  <path
     fill="none"
     stroke="#1565c0"
     paint-order="fill stroke markers"
     d="M 1028.4759,146.5 395.47594,5.5"
     stroke-opacity="0.8"
     stroke-linecap="round"
     stroke-linejoin="round"
     stroke-miterlimit="10"
     stroke-width="2.5"
     id="path17" />
  <path
     fill="none"
     stroke="#1565c0"
     paint-order="fill stroke markers"
     d="M 395.47594,5.5 4.5,759.39071"
     stroke-opacity="0.8"
     stroke-linecap="round"
     stroke-linejoin="round"
     stroke-miterlimit="10"
     stroke-width="2.5"
     id="path19" />
  <path
     fill="none"
     stroke="#1565c0"
     paint-order="fill stroke markers"
     d="M 4.5,759.39071 H 1279.8872"
     stroke-opacity="0.8"
     stroke-linecap="round"
     stroke-linejoin="round"
     stroke-miterlimit="10"
     stroke-width="2.5"
     id="path21" />
  <path
     fill="none"
     stroke="#d32f2f"
     paint-order="fill stroke markers"
     d="M 395.47594,5.5 1279.8872,759.39071"
     stroke-opacity="0.8"
     stroke-linecap="round"
     stroke-linejoin="round"
     stroke-miterlimit="10"
     stroke-width="2.5"
     id="path23" />
  <path
     fill="none"
     stroke="#d32f2f"
     paint-order="fill stroke markers"
     d="M 1028.4759,146.5 4.5,759.39071"
     stroke-opacity="0.8"
     stroke-linecap="round"
     stroke-linejoin="round"
     stroke-miterlimit="10"
     stroke-width="2.5"
     id="path25" />
  <path
     fill="#1565c0"
     stroke="none"
     paint-order="stroke fill markers"
     d="m 8.5,759.39071 c 0,2.20913 -1.79086,4 -4,4 -2.20913,0 -4,-1.79087 -4,-4 0,-2.20914 1.79087,-4 4,-4 2.20914,0 4,1.79086 4,4 z"
     fill-opacity="1"
     id="path27" />
  <path
     fill="none"
     stroke="#000000"
     paint-order="fill stroke markers"
     d="m 8.5,759.39071 c 0,2.20913 -1.79086,4 -4,4 -2.20913,0 -4,-1.79087 -4,-4 0,-2.20914 1.79087,-4 4,-4 2.20914,0 4,1.79086 4,4 z"
     stroke-opacity="1"
     stroke-linecap="round"
     stroke-linejoin="round"
     stroke-miterlimit="10"
     id="path29" />
  <path
     fill="#1565c0"
     stroke="none"
     paint-order="stroke fill markers"
     d="m 1284.8872,759.39071 c 0,2.76142 -2.2385,5 -5,5 -2.7614,0 -5,-2.23858 -5,-5 0,-2.76143 2.2386,-5 5,-5 2.7615,0 5,2.23857 5,5 z"
     fill-opacity="1"
     id="path31" />
  <path
     fill="none"
     stroke="#000000"
     paint-order="fill stroke markers"
     d="m 1284.8872,759.39071 c 0,2.76142 -2.2385,5 -5,5 -2.7614,0 -5,-2.23858 -5,-5 0,-2.76143 2.2386,-5 5,-5 2.7615,0 5,2.23857 5,5 z"
     stroke-opacity="1"
     stroke-linecap="round"
     stroke-linejoin="round"
     stroke-miterlimit="10"
     id="path33" />
  <path
     fill="#1565c0"
     stroke="none"
     paint-order="stroke fill markers"
     d="m 1033.4759,146.5 c 0,2.76142 -2.2386,5 -5,5 -2.7614,0 -5,-2.23858 -5,-5 0,-2.76142 2.2386,-5 5,-5 2.7614,0 5,2.23858 5,5 z"
     fill-opacity="1"
     id="path35" />
  <path
     fill="none"
     stroke="#000000"
     paint-order="fill stroke markers"
     d="m 1033.4759,146.5 c 0,2.76142 -2.2386,5 -5,5 -2.7614,0 -5,-2.23858 -5,-5 0,-2.76142 2.2386,-5 5,-5 2.7614,0 5,2.23858 5,5 z"
     stroke-opacity="1"
     stroke-linecap="round"
     stroke-linejoin="round"
     stroke-miterlimit="10"
     id="path37" />
  <path
     fill="#1565c0"
     stroke="none"
     paint-order="stroke fill markers"
     d="m 400.47594,5.5 c 0,2.76142 -2.23858,5 -5,5 -2.76142,0 -5,-2.23858 -5,-5 0,-2.76142 2.23858,-5 5,-5 2.76142,0 5,2.23858 5,5 z"
     fill-opacity="1"
     id="path39" />
  <path
     fill="none"
     stroke="#000000"
     paint-order="fill stroke markers"
     d="m 400.47594,5.5 c 0,2.76142 -2.23858,5 -5,5 -2.76142,0 -5,-2.23858 -5,-5 0,-2.76142 2.23858,-5 5,-5 2.76142,0 5,2.23858 5,5 z"
     stroke-opacity="1"
     stroke-linecap="round"
     stroke-linejoin="round"
     stroke-miterlimit="10"
     id="path41" />
  <g
     transform="matrix(35,0,0,35,-199.52406,-120.5)"
     id="g51">
    <g
       transform="translate(17.685714,12.568714)"
       id="g45">
      <path
         fill="#000000"
         stroke="none"
         paint-order="stroke fill markers"
         d="m 0.303,-0.316 v 0 l -0.062,0.25 -0.003,0.017 q 0,0.017 0.046,0.018 v 0 0 h 0.019 q 0.026,0 0.028,0.011 Q 0.331,0 0.311,0 L 0.247,-0.002 H 0.246 L 0.184,-0.003 H 0.182 L 0.056,0 H 0.055 Q 0.04,0 0.04,-0.012 q 0,-0.017 0.016,-0.019 h 0.012 q 0.065,0 0.078,-0.014 0.006,-0.007 0.012,-0.028 0,-0.001 0.001,-0.005 l 0.134,-0.537 q 0.004,-0.016 0.004,-0.019 0,-0.012 -0.016,-0.015 H 0.28 v 0 Q 0.278,-0.65 0.275,-0.65 0.251,-0.652 0.232,-0.652 q -0.026,0 -0.028,-0.008 -10e-4,-0.002 -10e-4,-0.004 0,-0.017 0.017,-0.019 v 0 h 0.013 0.324 q 0.121,0 0.173,0.074 0.024,0.035 0.024,0.077 0,0.081 -0.083,0.147 -0.088,0.069 -0.198,0.069 h -0.17 m 0.072,-0.298 -0.068,0.272 h 0.141 q 0.095,0 0.154,-0.053 0.041,-0.038 0.056,-0.127 v -0.001 q 0.003,-0.019 0.003,-0.033 0,-0.096 -0.136,-0.096 H 0.429 q -0.036,0 -0.044,0.01 v 0 0.001 H 0.384 V -0.64 Q 0.38,-0.634 0.375,-0.614 Z"
         id="path43" />
    </g>
    <g
       transform="matrix(0.7,0,0,0.7,18.327714,12.718714)"
       id="g49">
      <path
         fill="#000000"
         stroke="none"
         paint-order="stroke fill markers"
         d="m 0.028,-0.165 v -0.031 l 0.307,-0.469 q 0.008,-0.012 0.02,-0.012 0.014,0 0.016,0.011 v 0.015 0.455 h 0.1 v 0.031 h -0.1 v 0.087 q 0,0.031 0.012,0.038 0.014,0.009 0.064,0.009 H 0.468 V 0 Q 0.427,-0.003 0.332,-0.003 0.238,-0.003 0.197,0 v -0.031 h 0.021 q 0.062,0 0.072,-0.017 0.004,-0.007 0.004,-0.03 V -0.165 H 0.028 M 0.3,-0.196 v -0.373 l -0.244,0.373 z"
         id="path47" />
    </g>
  </g>
  <g
     transform="matrix(35,0,0,35,-199.52406,-120.5)"
     id="g63">
    <g
       transform="translate(26.428571,8.6258571)"
       id="g57">
      <path
         fill="#000000"
         stroke="none"
         paint-order="stroke fill markers"
         d="m 0.303,-0.316 v 0 l -0.062,0.25 -0.003,0.017 q 0,0.017 0.046,0.018 v 0 0 h 0.019 q 0.026,0 0.028,0.011 Q 0.331,0 0.311,0 L 0.247,-0.002 H 0.246 L 0.184,-0.003 H 0.182 L 0.056,0 H 0.055 Q 0.04,0 0.04,-0.012 q 0,-0.017 0.016,-0.019 h 0.012 q 0.065,0 0.078,-0.014 0.006,-0.007 0.012,-0.028 0,-0.001 0.001,-0.005 l 0.134,-0.537 q 0.004,-0.016 0.004,-0.019 0,-0.012 -0.016,-0.015 H 0.28 v 0 Q 0.278,-0.65 0.275,-0.65 0.251,-0.652 0.232,-0.652 q -0.026,0 -0.028,-0.008 -10e-4,-0.002 -10e-4,-0.004 0,-0.017 0.017,-0.019 v 0 h 0.013 0.324 q 0.121,0 0.173,0.074 0.024,0.035 0.024,0.077 0,0.081 -0.083,0.147 -0.088,0.069 -0.198,0.069 h -0.17 m 0.072,-0.298 -0.068,0.272 h 0.141 q 0.095,0 0.154,-0.053 0.041,-0.038 0.056,-0.127 v -0.001 q 0.003,-0.019 0.003,-0.033 0,-0.096 -0.136,-0.096 H 0.429 q -0.036,0 -0.044,0.01 v 0 0.001 H 0.384 V -0.64 Q 0.38,-0.634 0.375,-0.614 Z"
         id="path55" />
    </g>
    <g
       transform="matrix(0.7,0,0,0.7,27.070571,8.7758571)"
       id="g61">
      <path
         fill="#000000"
         stroke="none"
         paint-order="stroke fill markers"
         d="m 0.29,-0.352 v 0 q 0.1,0.02 0.144,0.098 0.023,0.039 0.023,0.083 0,0.085 -0.07,0.143 -0.061,0.05 -0.143,0.05 -0.099,0 -0.159,-0.059 -0.043,-0.042 -0.043,-0.098 0,-0.047 0.042,-0.056 0.007,-0.002 0.014,-0.002 0.038,0 0.051,0.032 0.004,0.013 0.005,0.024 0,0.04 -0.036,0.052 -0.014,0.005 -0.03,0.003 0.037,0.062 0.128,0.074 0.013,0.002 0.025,0.002 0.064,0 0.094,-0.063 0.019,-0.04 0.019,-0.102 0,-0.133 -0.08,-0.16 Q 0.256,-0.337 0.235,-0.337 H 0.191 q -0.022,0 -0.024,-0.011 0,-0.01 0.015,-0.012 0.015,0 0.039,-0.003 0.051,-0.002 0.08,-0.039 v -0.001 l 0.001,-0.001 0.001,-0.001 h 0.001 l 0.006,-0.01 q 0.028,-0.047 0.028,-0.114 0,-0.093 -0.072,-0.109 -0.012,-0.003 -0.024,-0.003 -0.07,0 -0.114,0.04 -0.011,0.01 -0.019,0.022 0.062,0 0.062,0.05 0,0.036 -0.031,0.048 -0.009,0.003 -0.02,0.003 -0.039,0 -0.049,-0.035 v 0 -0.001 Q 0.069,-0.522 0.069,-0.53 q 0,-0.067 0.066,-0.107 0.048,-0.029 0.111,-0.029 0.091,0 0.147,0.054 l 0.002,0.002 q 0.035,0.036 0.035,0.082 0,0.083 -0.071,0.139 -0.031,0.024 -0.069,0.037 z"
         id="path59" />
    </g>
  </g>
  <g
     transform="matrix(35,0,0,35,-199.52406,-120.5)"
     id="g73">
    <g
       transform="translate(33.771429,13.854429)"
       id="g67">
      <path
         fill="#000000"
         stroke="none"
         paint-order="stroke fill markers"
         d="m 0.303,-0.316 v 0 l -0.062,0.25 -0.003,0.017 q 0,0.017 0.046,0.018 v 0 0 h 0.019 q 0.026,0 0.028,0.011 Q 0.331,0 0.311,0 L 0.247,-0.002 H 0.246 L 0.184,-0.003 H 0.182 L 0.056,0 H 0.055 Q 0.04,0 0.04,-0.012 q 0,-0.017 0.016,-0.019 h 0.012 q 0.065,0 0.078,-0.014 0.006,-0.007 0.012,-0.028 0,-0.001 0.001,-0.005 l 0.134,-0.537 q 0.004,-0.016 0.004,-0.019 0,-0.012 -0.016,-0.015 H 0.28 v 0 Q 0.278,-0.65 0.275,-0.65 0.251,-0.652 0.232,-0.652 q -0.026,0 -0.028,-0.008 -10e-4,-0.002 -10e-4,-0.004 0,-0.017 0.017,-0.019 v 0 h 0.013 0.324 q 0.121,0 0.173,0.074 0.024,0.035 0.024,0.077 0,0.081 -0.083,0.147 -0.088,0.069 -0.198,0.069 h -0.17 m 0.072,-0.298 -0.068,0.272 h 0.141 q 0.095,0 0.154,-0.053 0.041,-0.038 0.056,-0.127 v -0.001 q 0.003,-0.019 0.003,-0.033 0,-0.096 -0.136,-0.096 H 0.429 q -0.036,0 -0.044,0.01 v 0 0.001 H 0.384 V -0.64 Q 0.38,-0.634 0.375,-0.614 Z"
         id="path65" />
    </g>
    <g
       transform="matrix(0.7,0,0,0.7,34.413429,14.004429)"
       id="g71">
      <path
         fill="#000000"
         stroke="none"
         paint-order="stroke fill markers"
         d="m 0.449,-0.174 v 0 L 0.421,0 H 0.05 q 0,-0.025 0.006,-0.032 l 0.005,-0.005 0.192,-0.214 q 0.105,-0.118 0.105,-0.221 0,-0.089 -0.054,-0.135 L 0.303,-0.608 H 0.302 Q 0.27,-0.635 0.224,-0.635 q -0.072,0 -0.115,0.062 -0.012,0.018 -0.02,0.04 0.003,-0.001 0.013,-0.001 0.04,0 0.051,0.036 v 0.001 q 0.002,0.007 0.002,0.015 0,0.04 -0.038,0.051 -0.008,0.002 -0.014,0.002 -0.037,0 -0.049,-0.031 -0.004,-0.011 -0.004,-0.025 0,-0.077 0.059,-0.132 0.053,-0.049 0.128,-0.049 0.11,0 0.171,0.074 0.035,0.043 0.04,0.102 0.001,0.009 0.001,0.018 0,0.073 -0.055,0.139 -0.029,0.034 -0.09,0.09 l -0.061,0.054 -0.01,0.009 -0.106,0.103 h 0.18 q 0.088,0 0.095,-0.008 0.01,-0.014 0.022,-0.089 z"
         id="path69" />
    </g>
  </g>
  <g
     transform="matrix(35,0,0,35,-199.52406,-120.5)"
     id="g83">
    <g
       transform="translate(24.428571,20.197286)"
       id="g77">
      <path
         fill="#000000"
         stroke="none"
         paint-order="stroke fill markers"
         d="m 0.303,-0.316 v 0 l -0.062,0.25 -0.003,0.017 q 0,0.017 0.046,0.018 v 0 0 h 0.019 q 0.026,0 0.028,0.011 Q 0.331,0 0.311,0 L 0.247,-0.002 H 0.246 L 0.184,-0.003 H 0.182 L 0.056,0 H 0.055 Q 0.04,0 0.04,-0.012 q 0,-0.017 0.016,-0.019 h 0.012 q 0.065,0 0.078,-0.014 0.006,-0.007 0.012,-0.028 0,-0.001 0.001,-0.005 l 0.134,-0.537 q 0.004,-0.016 0.004,-0.019 0,-0.012 -0.016,-0.015 H 0.28 v 0 Q 0.278,-0.65 0.275,-0.65 0.251,-0.652 0.232,-0.652 q -0.026,0 -0.028,-0.008 -10e-4,-0.002 -10e-4,-0.004 0,-0.017 0.017,-0.019 v 0 h 0.013 0.324 q 0.121,0 0.173,0.074 0.024,0.035 0.024,0.077 0,0.081 -0.083,0.147 -0.088,0.069 -0.198,0.069 h -0.17 m 0.072,-0.298 -0.068,0.272 h 0.141 q 0.095,0 0.154,-0.053 0.041,-0.038 0.056,-0.127 v -0.001 q 0.003,-0.019 0.003,-0.033 0,-0.096 -0.136,-0.096 H 0.429 q -0.036,0 -0.044,0.01 v 0 0.001 H 0.384 V -0.64 Q 0.38,-0.634 0.375,-0.614 Z"
         id="path75" />
    </g>
    <g
       transform="matrix(0.7,0,0,0.7,25.070571,20.347286)"
       id="g81">
      <path
         fill="#000000"
         stroke="none"
         paint-order="stroke fill markers"
         d="m 0.294,-0.64 v 0.561 q 0,0.03 0.012,0.038 0.017,0.01 0.081,0.01 H 0.419 V 0 Q 0.384,-0.003 0.257,-0.003 0.13,-0.003 0.095,0 v -0.031 h 0.032 q 0.077,0 0.088,-0.018 L 0.216,-0.05 Q 0.22,-0.058 0.22,-0.079 v -0.518 q -0.052,0.026 -0.131,0.026 v -0.031 q 0.12,0 0.182,-0.064 0.019,0 0.022,0.007 v 0 0.001 q 0.001,0.003 0.001,0.018 z"
         id="path79" />
    </g>
  </g>
</svg>
