<?xml version="1.0" encoding="UTF-8" standalone="no"?>
<!-- Created with Inkscape (http://www.inkscape.org/) -->
<svg
   xmlns:svg="http://www.w3.org/2000/svg"
   xmlns="http://www.w3.org/2000/svg"
   version="1.0"
   width="423.27997pt"
   height="381.89001pt"
   id="svg2">
  <defs
     id="defs5" />
  <path
     d="M 435.73438,182.36218 L 115.73438,82.36218 L 10.734375,202.36218 L 65.734375,397.36218 L 510.73438,382.36218"
     style="fill:none;fill-opacity:0.75;fill-rule:evenodd;stroke:#000000;stroke-width:1px;stroke-linecap:butt;stroke-linejoin:miter;stroke-opacity:1"
     id="path1306" />
  <path
     d="M 300.73438,12.36218 L 375.73438,287.36218 L 260.73438,467.36218"
     style="fill:none;fill-opacity:0.75;fill-rule:evenodd;stroke:#000000;stroke-width:1px;stroke-linecap:butt;stroke-linejoin:miter;stroke-opacity:1"
     id="path1308" />
  <path
     d="M 219.48141,352.56732 A 57.5,57.5 0 1 1 156.54304,287.67158"
     transform="matrix(1.148816,0,0,1.148816,142.7604,-235.4662)"
     style="fill:none;fill-opacity:0.75;fill-rule:evenodd;stroke:#000000;stroke-width:1px;stroke-linecap:butt;stroke-linejoin:miter;stroke-opacity:1"
     id="path1310" />
  <path
     d="M 351.03817,687.23718 A 47.5,47.5 0 1 1 419.9722,646.48694"
     transform="matrix(1.435559,0,0,1.435559,-230.1062,-540.8745)"
     style="fill:none;fill-opacity:0.75;fill-rule:evenodd;stroke:#000000;stroke-width:1px;stroke-linecap:butt;stroke-linejoin:miter;stroke-opacity:1"
     id="path2185" />
  <path
     d="M 319.0625,178.04968 L 321.65625,178.04968 L 319.625,185.15906 C 319.48957,185.60698 319.27603,186.31011 318.98438,187.26843 C 319.3802,188.8726 319.67707,189.83094 319.875,190.14343 C 320.24998,190.71635 320.72395,191.00281 321.29688,191.00281 C 321.71353,191.00281 322.09895,190.83093 322.45313,190.48718 C 322.80728,190.14343 323.04165,189.60698 323.15625,188.87781 L 323.78125,188.87781 C 323.6354,190.37781 323.31768,191.41427 322.82813,191.98718 C 322.34895,192.5601 321.79165,192.84656 321.15625,192.84656 C 320.56248,192.84656 320.02082,192.59656 319.53125,192.09656 C 319.05207,191.59656 318.61978,190.52364 318.23438,188.87781 C 317.77603,189.78406 317.32812,190.47156 316.89063,190.94031 C 316.27603,191.58614 315.60937,192.06531 314.89063,192.37781 C 314.17187,192.70072 313.35415,192.86218 312.4375,192.86218 C 310.13542,192.86218 308.4427,192.09656 307.35938,190.56531 C 306.27603,189.03406 305.73438,187.28927 305.73438,185.33093 C 305.73438,183.03928 306.36978,181.18511 307.64063,179.76843 C 308.91145,178.34136 310.40103,177.62782 312.10938,177.62781 C 313.29687,177.62782 314.34375,177.99241 315.25,178.72156 C 316.15623,179.44032 316.97915,180.78407 317.71875,182.75281 L 319.0625,178.04968 M 317.17188,184.50281 C 316.60937,182.35698 315.8854,180.86219 315,180.01843 C 314.11458,179.16428 313.21353,178.7372 312.29688,178.73718 C 311.27603,178.7372 310.42708,179.2997 309.75,180.42468 C 309.07292,181.53928 308.73438,183.32052 308.73438,185.76843 C 308.73438,187.21635 308.8802,188.35698 309.17188,189.19031 C 309.46353,190.01323 309.90103,190.65385 310.48438,191.11218 C 311.07812,191.5601 311.70312,191.78406 312.35938,191.78406 C 313.16145,191.78406 313.89583,191.41427 314.5625,190.67468 C 315.46873,189.67469 316.33853,187.6174 317.17188,184.50281"
     style="font-size:32px;font-style:normal;font-variant:normal;font-weight:normal;font-stretch:normal;text-align:start;line-height:125%;writing-mode:lr-tb;text-anchor:start;fill:#000000;fill-opacity:1;stroke:none;stroke-width:1px;stroke-linecap:butt;stroke-linejoin:miter;stroke-opacity:1;font-family:Symbol"
     id="text3060" />
  <path
     d="M 304.73438,129.23718 L 304.73438,131.87781 C 304.73437,133.5653 304.52603,135.39343 304.10938,137.36218 L 301.46875,137.36218 C 301.75,136.07051 301.91667,135.1903 301.96875,134.72156 C 302.10417,133.26322 302.17188,132.19551 302.17188,131.51843 L 302.17188,115.54968 C 302.17188,113.68512 302.35417,112.30491 302.71875,111.40906 C 303.09375,110.50283 303.76042,109.74762 304.71875,109.14343 C 305.6875,108.53929 306.84375,108.2372 308.1875,108.23718 C 310.05208,108.2372 311.54165,108.7372 312.65625,109.73718 C 313.77082,110.7372 314.32812,111.9247 314.32813,113.29968 C 314.32812,114.18512 314.09895,115.02886 313.64063,115.83093 C 313.1927,116.62261 312.49478,117.31011 311.54688,117.89343 C 314.33853,119.22678 315.73435,121.29969 315.73438,124.11218 C 315.73435,125.36219 315.4427,126.52885 314.85938,127.61218 C 314.27603,128.69552 313.47395,129.52364 312.45313,130.09656 C 311.43228,130.65906 310.3802,130.94031 309.29688,130.94031 C 308.59895,130.94031 307.90625,130.82052 307.21875,130.58093 C 306.54165,130.34135 305.71353,129.89343 304.73438,129.23718 M 304.73438,128.00281 C 305.74478,128.71114 306.625,129.22156 307.375,129.53406 C 307.9375,129.76322 308.5,129.87781 309.0625,129.87781 C 310.11458,129.87781 310.99478,129.44552 311.70313,128.58093 C 312.42187,127.70594 312.78123,126.32573 312.78125,124.44031 C 312.78123,123.25281 312.60937,122.21636 312.26563,121.33093 C 311.93228,120.43511 311.33853,119.45594 310.48438,118.39343 C 309.76562,118.63303 309.14583,118.75282 308.625,118.75281 C 308,118.75282 307.55728,118.65907 307.29688,118.47156 C 307.04687,118.28407 306.92187,118.08094 306.92188,117.86218 C 306.92187,117.66428 307.02083,117.4872 307.21875,117.33093 C 307.41665,117.1747 307.73437,117.09657 308.17188,117.09656 C 308.68228,117.09657 309.45312,117.23199 310.48438,117.50281 C 311.21353,116.05491 311.57812,114.68512 311.57813,113.39343 C 311.57812,112.08095 311.2552,111.06533 310.60938,110.34656 C 309.96353,109.62783 309.16145,109.26845 308.20313,109.26843 C 306.99478,109.26845 306.05728,109.77887 305.39063,110.79968 C 304.95312,111.47678 304.73437,112.56533 304.73438,114.06531 L 304.73438,128.00281"
     style="font-size:32px;font-style:normal;font-variant:normal;font-weight:normal;font-stretch:normal;text-align:start;line-height:125%;writing-mode:lr-tb;text-anchor:start;fill:#000000;fill-opacity:1;stroke:none;stroke-width:1px;stroke-linecap:butt;stroke-linejoin:miter;stroke-opacity:1;font-family:Symbol"
     id="text3064" />
  <path
     d="M 364,193.36218 L 364,196.00281 C 364,197.6903 363.79167,199.51843 363.375,201.48718 L 360.73438,201.48718 C 361.01563,200.19551 361.18228,199.3153 361.23438,198.84656 C 361.36978,197.38822 361.4375,196.32051 361.4375,195.64343 L 361.4375,179.67468 C 361.4375,177.81012 361.61978,176.42991 361.98438,175.53406 C 362.35938,174.62783 363.02603,173.87262 363.98438,173.26843 C 364.95312,172.66429 366.10937,172.3622 367.45313,172.36218 C 369.3177,172.3622 370.80728,172.8622 371.92188,173.86218 C 373.03645,174.8622 373.59373,176.0497 373.59375,177.42468 C 373.59373,178.31012 373.36457,179.15386 372.90625,179.95593 C 372.45832,180.74761 371.7604,181.43511 370.8125,182.01843 C 373.60415,183.35178 374.99998,185.42469 375,188.23718 C 374.99998,189.48719 374.70832,190.65385 374.125,191.73718 C 373.54165,192.82052 372.73957,193.64864 371.71875,194.22156 C 370.6979,194.78406 369.64583,195.06531 368.5625,195.06531 C 367.86458,195.06531 367.17187,194.94552 366.48438,194.70593 C 365.80728,194.46635 364.97917,194.01843 364,193.36218 M 364,192.12781 C 365.01042,192.83614 365.89062,193.34656 366.64063,193.65906 C 367.20312,193.88822 367.76562,194.00281 368.32813,194.00281 C 369.3802,194.00281 370.2604,193.57052 370.96875,192.70593 C 371.68748,191.83094 372.04687,190.45073 372.04688,188.56531 C 372.04687,187.37781 371.87498,186.34136 371.53125,185.45593 C 371.1979,184.56011 370.60415,183.58094 369.75,182.51843 C 369.03123,182.75803 368.41145,182.87782 367.89063,182.87781 C 367.26562,182.87782 366.8229,182.78407 366.5625,182.59656 C 366.3125,182.40907 366.1875,182.20594 366.1875,181.98718 C 366.1875,181.78928 366.28645,181.6122 366.48438,181.45593 C 366.68228,181.2997 367,181.22157 367.4375,181.22156 C 367.9479,181.22157 368.71875,181.35699 369.75,181.62781 C 370.47915,180.17991 370.84373,178.81012 370.84375,177.51843 C 370.84373,176.20595 370.52083,175.19033 369.875,174.47156 C 369.22915,173.75283 368.42708,173.39345 367.46875,173.39343 C 366.2604,173.39345 365.32292,173.90387 364.65625,174.92468 C 364.21875,175.60178 364,176.69033 364,178.19031 L 364,192.12781"
     style="font-size:32px;font-style:normal;font-variant:normal;font-weight:normal;font-stretch:normal;text-align:start;line-height:125%;writing-mode:lr-tb;text-anchor:start;fill:#000000;fill-opacity:1;stroke:none;stroke-width:1px;stroke-linecap:butt;stroke-linejoin:miter;stroke-opacity:1;font-family:Symbol"
     id="text3080" />
  <path
     d="M 267.60938,411.09656 C 267.1927,410.69032 266.74478,410.30491 266.26563,409.94031 C 264.73437,408.76324 263.74478,407.85699 263.29688,407.22156 C 262.84895,406.57574 262.625,405.97678 262.625,405.42468 C 262.625,404.6122 263.01563,403.89866 263.79688,403.28406 C 264.57813,402.6695 265.8177,402.3622 267.51563,402.36218 C 269.48437,402.3622 271.02083,402.7372 272.125,403.48718 C 272.81248,403.95595 273.15623,404.51324 273.15625,405.15906 C 273.15623,405.51324 273.02603,405.81533 272.76563,406.06531 C 272.51562,406.31533 272.1979,406.44033 271.8125,406.44031 C 271.58333,406.44033 271.3802,406.38824 271.20313,406.28406 C 270.9427,406.12783 270.48958,405.70074 269.84375,405.00281 C 269.20833,404.30491 268.70312,403.8622 268.32813,403.67468 C 267.83853,403.43512 267.2604,403.31533 266.59375,403.31531 C 265.66667,403.31533 264.95312,403.51845 264.45313,403.92468 C 263.96353,404.32054 263.71875,404.75804 263.71875,405.23718 C 263.71875,405.69553 263.99478,406.21116 264.54688,406.78406 C 265.09895,407.34657 266.3229,408.19553 268.21875,409.33093 C 270.62498,410.75803 272.2552,412.08615 273.10938,413.31531 C 273.96353,414.54448 274.39062,415.88823 274.39063,417.34656 C 274.39062,419.48198 273.66145,421.30489 272.20313,422.81531 C 270.7552,424.31531 269.04165,425.06531 267.0625,425.06531 C 265.27083,425.06531 263.76563,424.44031 262.54688,423.19031 C 261.33853,421.94031 260.73438,420.39865 260.73438,418.56531 C 260.73438,417.47156 260.97917,416.40386 261.46875,415.36218 C 261.95833,414.31011 262.6927,413.44553 263.67188,412.76843 C 264.65103,412.09136 265.96353,411.53407 267.60938,411.09656 M 268.4375,411.84656 C 266.8125,412.1174 265.58853,412.76324 264.76563,413.78406 C 263.95313,414.79448 263.54688,416.25282 263.54688,418.15906 C 263.54688,420.06531 263.95313,421.51844 264.76563,422.51843 C 265.57812,423.50802 266.51562,424.00281 267.57813,424.00281 C 268.85937,424.00281 269.85937,423.48198 270.57813,422.44031 C 271.30728,421.39864 271.67187,420.07573 271.67188,418.47156 C 271.67187,417.60698 271.54687,416.79448 271.29688,416.03406 C 271.05728,415.27365 270.7604,414.64344 270.40625,414.14343 C 270.1354,413.76844 269.47915,413.00282 268.4375,411.84656"
     style="font-size:32px;font-style:normal;font-variant:normal;font-weight:normal;font-stretch:normal;text-align:start;line-height:125%;writing-mode:lr-tb;text-anchor:start;fill:#000000;fill-opacity:1;stroke:none;stroke-width:1px;stroke-linecap:butt;stroke-linejoin:miter;stroke-opacity:1;font-family:Symbol"
     id="text3086" />
  <path
     d="M 293.125,348.04968 L 295.73438,348.04968 C 295.5677,348.4247 294.70833,350.20594 293.15625,353.39343 C 292.5104,354.72677 292.04687,355.73719 291.76563,356.42468 C 291.64062,356.70594 291.5,357.01323 291.34375,357.34656 L 289.54688,361.19031 C 289.61978,361.85697 289.67187,362.47156 289.70313,363.03406 C 289.73437,363.59656 289.75,364.10697 289.75,364.56531 C 289.75,365.98197 289.64583,367.07572 289.4375,367.84656 C 289.29165,368.38822 289.09895,368.75801 288.85938,368.95593 C 288.61978,369.16426 288.35937,369.26843 288.07813,369.26843 C 287.73437,369.26843 287.42708,369.12259 287.15625,368.83093 C 286.89583,368.53926 286.76563,368.16426 286.76563,367.70593 C 286.76563,366.90384 286.92708,365.97676 287.25,364.92468 C 287.57292,363.88301 288.05208,362.71114 288.6875,361.40906 C 287.92708,356.07573 287.3177,352.85698 286.85938,351.75281 C 286.41145,350.64865 285.78645,350.09657 284.98438,350.09656 C 284.49478,350.09657 284.10938,350.24761 283.82813,350.54968 C 283.54688,350.84136 283.33333,351.50803 283.1875,352.54968 L 282.57813,352.54968 C 282.5677,352.23719 282.5625,352.00282 282.5625,351.84656 C 282.5625,350.40907 282.84375,349.32574 283.40625,348.59656 C 283.83333,348.05491 284.40625,347.78407 285.125,347.78406 C 285.75,347.78407 286.26042,347.97157 286.65625,348.34656 C 287.19792,348.87782 287.68228,350.03407 288.10938,351.81531 C 288.65103,354.12782 289.07292,356.64344 289.375,359.36218 L 290.75,354.72156 C 291.36458,352.63823 292.15625,350.41428 293.125,348.04968"
     style="font-size:32px;font-style:normal;font-variant:normal;font-weight:normal;font-stretch:normal;text-align:start;line-height:125%;writing-mode:lr-tb;text-anchor:start;fill:#000000;fill-opacity:1;stroke:none;stroke-width:1px;stroke-linecap:butt;stroke-linejoin:miter;stroke-opacity:1;font-family:Symbol"
     id="text3090" />
  <text
     x="312.75"
     y="127.03406"
     style="font-size:32px;font-style:italic;font-variant:normal;font-weight:bold;font-stretch:normal;text-align:start;line-height:125%;writing-mode:lr-tb;text-anchor:start;fill:#000000;fill-opacity:1;stroke:none;stroke-width:1px;stroke-linecap:butt;stroke-linejoin:miter;stroke-opacity:1;font-family:Times New Roman"
     id="text3094"
     xml:space="preserve"><tspan
       x="312.75"
       y="127.03406"
       id="tspan3096">'</tspan></text>
  <text
     x="270.75"
     y="419.03406"
     style="font-size:32px;font-style:italic;font-variant:normal;font-weight:bold;font-stretch:normal;text-align:start;line-height:125%;writing-mode:lr-tb;text-anchor:start;fill:#000000;fill-opacity:1;stroke:none;stroke-width:1px;stroke-linecap:butt;stroke-linejoin:miter;stroke-opacity:1;font-family:Times New Roman"
     id="text3098"
     xml:space="preserve"><tspan
       x="270.75"
       y="419.03406"
       id="tspan3100">'</tspan></text>
  <path
     d="M 347.60938,361.09656 C 347.1927,360.69032 346.74478,360.30491 346.26563,359.94031 C 344.73437,358.76324 343.74478,357.85699 343.29688,357.22156 C 342.84895,356.57574 342.625,355.97678 342.625,355.42468 C 342.625,354.6122 343.01563,353.89866 343.79688,353.28406 C 344.57813,352.6695 345.8177,352.3622 347.51563,352.36218 C 349.48437,352.3622 351.02083,352.7372 352.125,353.48718 C 352.81248,353.95595 353.15623,354.51324 353.15625,355.15906 C 353.15623,355.51324 353.02603,355.81533 352.76563,356.06531 C 352.51562,356.31533 352.1979,356.44033 351.8125,356.44031 C 351.58333,356.44033 351.3802,356.38824 351.20313,356.28406 C 350.9427,356.12783 350.48958,355.70074 349.84375,355.00281 C 349.20833,354.30491 348.70312,353.8622 348.32813,353.67468 C 347.83853,353.43512 347.2604,353.31533 346.59375,353.31531 C 345.66667,353.31533 344.95312,353.51845 344.45313,353.92468 C 343.96353,354.32054 343.71875,354.75804 343.71875,355.23718 C 343.71875,355.69553 343.99478,356.21116 344.54688,356.78406 C 345.09895,357.34657 346.3229,358.19553 348.21875,359.33093 C 350.62498,360.75803 352.2552,362.08615 353.10938,363.31531 C 353.96353,364.54448 354.39062,365.88823 354.39063,367.34656 C 354.39062,369.48198 353.66145,371.30489 352.20313,372.81531 C 350.7552,374.31531 349.04165,375.06531 347.0625,375.06531 C 345.27083,375.06531 343.76563,374.44031 342.54688,373.19031 C 341.33853,371.94031 340.73438,370.39865 340.73438,368.56531 C 340.73438,367.47156 340.97917,366.40386 341.46875,365.36218 C 341.95833,364.31011 342.6927,363.44553 343.67188,362.76843 C 344.65103,362.09136 345.96353,361.53407 347.60938,361.09656 M 348.4375,361.84656 C 346.8125,362.1174 345.58853,362.76324 344.76563,363.78406 C 343.95313,364.79448 343.54688,366.25282 343.54688,368.15906 C 343.54688,370.06531 343.95313,371.51844 344.76563,372.51843 C 345.57812,373.50802 346.51562,374.00281 347.57813,374.00281 C 348.85937,374.00281 349.85937,373.48198 350.57813,372.44031 C 351.30728,371.39864 351.67187,370.07573 351.67188,368.47156 C 351.67187,367.60698 351.54687,366.79448 351.29688,366.03406 C 351.05728,365.27365 350.7604,364.64344 350.40625,364.14343 C 350.1354,363.76844 349.47915,363.00282 348.4375,361.84656"
     style="font-size:32px;font-style:normal;font-variant:normal;font-weight:normal;font-stretch:normal;text-align:start;line-height:125%;writing-mode:lr-tb;text-anchor:start;fill:#000000;fill-opacity:1;stroke:none;stroke-width:1px;stroke-linecap:butt;stroke-linejoin:miter;stroke-opacity:1;font-family:Symbol"
     id="text3102" />
</svg>
