<?xml version="1.0" encoding="UTF-8" standalone="no"?><svg version="1.1" width="793.07092" height="800.02429" id="svg59" sodipodi:docname="wektory_pole.svg" inkscape:version="1.1.1 (3bf5ae0d25, 2021-09-20)" xmlns:inkscape="http://www.inkscape.org/namespaces/inkscape" xmlns:sodipodi="http://sodipodi.sourceforge.net/DTD/sodipodi-0.dtd" xmlns="http://www.w3.org/2000/svg" xmlns:svg="http://www.w3.org/2000/svg"><sodipodi:namedview id="namedview61" pagecolor="#ffffff" bordercolor="#666666" borderopacity="1.0" inkscape:pageshadow="2" inkscape:pageopacity="0.0" inkscape:pagecheckerboard="0" showgrid="false" fit-margin-top="0" fit-margin-left="0" fit-margin-right="0" fit-margin-bottom="0" inkscape:zoom="0.069499505" inkscape:cx="-2719.4438" inkscape:cy="2841.7469" inkscape:window-width="1920" inkscape:window-height="1009" inkscape:window-x="-8" inkscape:window-y="-8" inkscape:window-maximized="1" inkscape:current-layer="svg59" /><defs id="defs5"><clipPath id="qIAnXJNooygJ"><path fill="none" stroke="none" d="M 0,0 H 2018 V 1139 H 0 Z" id="path2" /></clipPath></defs><path fill="#1565c0" stroke="none" paint-order="stroke fill markers" fill-rule="evenodd" d="M 4.5,795.52429 776.95444,486.54253 467.97264,23.069883 Z" fill-opacity="0.0470588" id="path9" /><path fill="none" stroke="#1565c0" paint-order="fill stroke markers" d="M 4.5,795.52429 776.95444,486.54253" stroke-opacity="0.8" stroke-linecap="round" stroke-linejoin="round" stroke-miterlimit="10" stroke-width="2.5" id="path11" /><path fill="none" stroke="#1565c0" paint-order="fill stroke markers" d="M 776.95444,486.54253 467.97264,23.069883" stroke-opacity="0.8" stroke-linecap="round" stroke-linejoin="round" stroke-miterlimit="10" stroke-width="2.5" id="path13" /><path fill="none" stroke="#000000" paint-order="fill stroke markers" d="M 467.97264,23.069883 4.5,795.52429" stroke-opacity="0.8" stroke-linecap="round" stroke-linejoin="round" stroke-miterlimit="10" stroke-width="2.5" id="path15" /><path fill="none" stroke="#616161" paint-order="fill stroke markers" d="M 4.5,795.52429 459.22621,37.647263" stroke-opacity="0.8" stroke-linecap="round" stroke-linejoin="round" stroke-miterlimit="10" stroke-width="2.5" id="path17" /><path fill="#616161" stroke="none" paint-order="stroke fill markers" fill-rule="evenodd" d="m 467.97264,23.069883 -5.10208,16.76399 -7.28869,-4.37321 z" fill-opacity="0.8" id="path19" /><path fill="none" stroke="#616161" paint-order="fill stroke markers" d="M 4.5,795.52429 761.17034,492.85617" stroke-opacity="0.8" stroke-linecap="round" stroke-linejoin="round" stroke-miterlimit="10" stroke-width="2.5" id="path21" /><path fill="#616161" stroke="none" paint-order="stroke fill markers" fill-rule="evenodd" d="m 776.95444,486.54253 -14.2057,10.25967 -3.1568,-7.89206 z" fill-opacity="0.8" id="path23" /><path fill="#616161" stroke="none" paint-order="stroke fill markers" d="m 8.5,795.52429 c 0,2.20914 -1.79086,4 -4,4 -2.20914,0 -4,-1.79086 -4,-4 0,-2.20914 1.79086,-4 4,-4 2.20914,0 4,1.79086 4,4 z" fill-opacity="1" id="path25" /><path fill="none" stroke="#000000" paint-order="fill stroke markers" d="m 8.5,795.52429 c 0,2.20914 -1.79086,4 -4,4 -2.20914,0 -4,-1.79086 -4,-4 0,-2.20914 1.79086,-4 4,-4 2.20914,0 4,1.79086 4,4 z" stroke-opacity="1" stroke-linecap="round" stroke-linejoin="round" stroke-miterlimit="10" id="path27" /><text fill="#616161" stroke="none" font-family="geogebra-sans-serif, sans-serif" font-size="16px" font-style="normal" font-weight="normal" text-decoration="normal" x="8.0240402" y="787.13281" text-anchor="start" dominant-baseline="alphabetic" fill-opacity="1" id="text29">A</text><text fill="none" stroke="#ffffff" font-family="geogebra-sans-serif, sans-serif" font-size="16px" font-style="normal" font-weight="normal" text-decoration="normal" x="8.0240402" y="787.13281" text-anchor="start" dominant-baseline="alphabetic" stroke-opacity="1" stroke-linejoin="bevel" stroke-miterlimit="10" stroke-width="3" id="text31">A</text><text fill="#616161" stroke="none" font-family="geogebra-sans-serif, sans-serif" font-size="16px" font-style="normal" font-weight="normal" text-decoration="normal" x="8.0240402" y="787.13281" text-anchor="start" dominant-baseline="alphabetic" fill-opacity="1" id="text33">A</text><path fill="#1565c0" stroke="none" paint-order="stroke fill markers" d="m 472.97264,23.069883 c 0,2.761429 -2.23857,5 -5,5 -2.76142,0 -5,-2.238571 -5,-5 0,-2.76142 2.23858,-5 5,-5 2.76143,0 5,2.23858 5,5 z" fill-opacity="1" id="path35" /><path fill="none" stroke="#000000" paint-order="fill stroke markers" d="m 472.97264,23.069883 c 0,2.761429 -2.23857,5 -5,5 -2.76142,0 -5,-2.238571 -5,-5 0,-2.76142 2.23858,-5 5,-5 2.76143,0 5,2.23858 5,5 z" stroke-opacity="1" stroke-linecap="round" stroke-linejoin="round" stroke-miterlimit="10" id="path37" /><text fill="#1565c0" stroke="none" font-family="geogebra-sans-serif, sans-serif" font-size="16px" font-style="normal" font-weight="normal" text-decoration="normal" x="472.02405" y="13.132812" text-anchor="start" dominant-baseline="alphabetic" fill-opacity="1" id="text39">B</text><text fill="none" stroke="#ffffff" font-family="geogebra-sans-serif, sans-serif" font-size="16px" font-style="normal" font-weight="normal" text-decoration="normal" x="472.02405" y="13.132812" text-anchor="start" dominant-baseline="alphabetic" stroke-opacity="1" stroke-linejoin="bevel" stroke-miterlimit="10" stroke-width="3" id="text41">B</text><text fill="#1565c0" stroke="none" font-family="geogebra-sans-serif, sans-serif" font-size="16px" font-style="normal" font-weight="normal" text-decoration="normal" x="472.02405" y="13.132812" text-anchor="start" dominant-baseline="alphabetic" fill-opacity="1" id="text43">B</text><path fill="#1565c0" stroke="none" paint-order="stroke fill markers" d="m 781.95444,486.54253 c 0,2.76142 -2.2386,5 -5,5 -2.7615,0 -5,-2.23858 -5,-5 0,-2.76143 2.2385,-5 5,-5 2.7614,0 5,2.23857 5,5 z" fill-opacity="1" id="path45" /><path fill="none" stroke="#000000" paint-order="fill stroke markers" d="m 781.95444,486.54253 c 0,2.76142 -2.2386,5 -5,5 -2.7615,0 -5,-2.23858 -5,-5 0,-2.76143 2.2385,-5 5,-5 2.7614,0 5,2.23857 5,5 z" stroke-opacity="1" stroke-linecap="round" stroke-linejoin="round" stroke-miterlimit="10" id="path47" /><text fill="#1565c0" stroke="none" font-family="geogebra-sans-serif, sans-serif" font-size="16px" font-style="normal" font-weight="normal" text-decoration="normal" x="781.02405" y="476.13281" text-anchor="start" dominant-baseline="alphabetic" fill-opacity="1" id="text49">C</text><text fill="none" stroke="#ffffff" font-family="geogebra-sans-serif, sans-serif" font-size="16px" font-style="normal" font-weight="normal" text-decoration="normal" x="781.02405" y="476.13281" text-anchor="start" dominant-baseline="alphabetic" stroke-opacity="1" stroke-linejoin="bevel" stroke-miterlimit="10" stroke-width="3" id="text51">C</text><text fill="#1565c0" stroke="none" font-family="geogebra-sans-serif, sans-serif" font-size="16px" font-style="normal" font-weight="normal" text-decoration="normal" x="781.02405" y="476.13281" text-anchor="start" dominant-baseline="alphabetic" fill-opacity="1" id="text53">C</text></svg>